<svg width="16" height="16" viewBox="0 0 16 16" fill="none" xmlns="http://www.w3.org/2000/svg">
<circle cx="8" cy="8" r="8" fill="#20578E"/>
<path d="M12.5834 7.16699C12.5834 6.94598 12.4956 6.73402 12.3393 6.57774C12.1831 6.42146 11.9711 6.33366 11.7501 6.33366H9.11675L9.51675 4.42949C9.52508 4.38783 9.52925 4.34199 9.52925 4.29616C9.52925 4.12533 9.45842 3.96699 9.34591 3.85449L8.90425 3.41699L6.16258 6.15866C6.00841 6.31283 5.91675 6.52116 5.91675 6.75033V10.917C5.91675 11.138 6.00455 11.35 6.16083 11.5062C6.31711 11.6625 6.52907 11.7503 6.75008 11.7503H10.5001C10.8459 11.7503 11.1417 11.542 11.2667 11.242L12.5251 8.30449C12.5626 8.20866 12.5834 8.10866 12.5834 8.00033V7.16699ZM3.41675 11.7503H5.08341V6.75033H3.41675V11.7503Z" fill="white"/>
</svg>
