<svg width="32" height="37" viewBox="0 0 32 37" fill="none" xmlns="http://www.w3.org/2000/svg">
<path d="M14.3342 28.8029C14.4542 28.9232 14.6118 28.9836 14.7693 28.9836C14.9269 28.9836 15.0844 28.9232 15.2044 28.8029C15.445 28.5618 15.445 28.172 15.2044 27.931L9.05058 21.7643C8.80993 21.5232 8.42101 21.5232 8.18043 21.7643C7.93986 22.0054 7.93986 22.3952 8.18043 22.6362L14.3342 28.8029Z" fill="#414141"/>
<path d="M23.5648 25.7194L24.3605 26.5168L23.5648 27.3141C23.3241 27.5553 23.3241 27.945 23.5648 28.1861C23.6848 28.3063 23.8423 28.3668 23.9998 28.3668C24.1574 28.3668 24.3149 28.3063 24.4349 28.1861L25.2306 27.3888L26.0263 28.1862C26.1463 28.3064 26.3039 28.3668 26.4614 28.3668C26.619 28.3668 26.7765 28.3064 26.8965 28.1862C27.1371 27.9451 27.1371 27.5553 26.8965 27.3142L26.1008 26.5168L26.8965 25.7194C27.1371 25.4783 27.1371 25.0886 26.8965 24.8475C26.6559 24.6063 26.2669 24.6063 26.0263 24.8475L25.2306 25.6448L24.4349 24.8474C24.1943 24.6063 23.8053 24.6063 23.5648 24.8474C23.3242 25.0886 23.3242 25.4783 23.5648 25.7194Z" fill="#414141"/>
<path d="M18.4614 19.1169C18.4614 20.1368 19.2897 20.9669 20.3076 20.9669C21.3254 20.9669 22.1537 20.1368 22.1537 19.1169C22.1537 18.0969 21.3254 17.2669 20.3076 17.2669C19.2897 17.2669 18.4614 18.0969 18.4614 19.1169ZM20.923 19.1169C20.923 19.4567 20.6467 19.7335 20.3076 19.7335C19.9686 19.7335 19.6923 19.4567 19.6923 19.1169C19.6923 18.7771 19.9686 18.5002 20.3076 18.5002C20.6467 18.5002 20.923 18.7771 20.923 19.1169Z" fill="#414141"/>
<path d="M20.7434 10.0476C20.6861 9.99086 20.6178 9.94584 20.5428 9.9144C20.3926 9.85211 20.2228 9.85211 20.0726 9.9144C19.9976 9.94584 19.9293 9.99086 19.8727 10.0476L17.4111 12.5142C17.1706 12.7554 17.1706 13.1451 17.4111 13.3862C17.6518 13.6273 18.0407 13.6273 18.2813 13.3862L19.6924 11.9722V15.4169C19.6924 15.7572 19.9681 16.0335 20.3077 16.0335C20.6474 16.0335 20.9231 15.7572 20.9231 15.4169V11.9722L22.3342 13.3862C22.4542 13.5065 22.6117 13.5669 22.7692 13.5669C22.9268 13.5669 23.0843 13.5065 23.2043 13.3862C23.445 13.1451 23.445 12.7553 23.2043 12.5142L20.7434 10.0476Z" fill="#414141"/>
<path d="M6.76925 17.2669C5.75141 17.2669 4.9231 18.0969 4.9231 19.1169C4.9231 20.1368 5.75141 20.9669 6.76925 20.9669C7.78708 20.9669 8.6154 20.1368 8.6154 19.1169C8.6154 18.0969 7.78708 17.2669 6.76925 17.2669ZM6.76925 19.7336C6.43016 19.7336 6.15389 19.4568 6.15389 19.117C6.15389 18.7772 6.43016 18.5003 6.76925 18.5003C7.10833 18.5003 7.38461 18.7772 7.38461 19.117C7.38461 19.4567 7.10833 19.7336 6.76925 19.7336Z" fill="#414141"/>
<path d="M7.56501 12.1531L8.36073 12.9504L7.56501 13.7478C7.32443 13.989 7.32443 14.3787 7.56501 14.6198C7.68501 14.74 7.84258 14.8005 8.00008 14.8005C8.15765 14.8005 8.31515 14.74 8.43515 14.6198L9.23087 13.8224L10.0266 14.6198C10.1466 14.74 10.3042 14.8005 10.4617 14.8005C10.6192 14.8005 10.7767 14.74 10.8967 14.6198C11.1373 14.3786 11.1373 13.9889 10.8967 13.7478L10.1009 12.9504L10.8967 12.1531C11.1372 11.9119 11.1372 11.5222 10.8967 11.2811C10.656 11.04 10.2671 11.04 10.0265 11.2811L9.2308 12.0785L8.43515 11.2811C8.1945 11.04 7.80558 11.04 7.56501 11.2811C7.32436 11.5223 7.32436 11.912 7.56501 12.1531Z" fill="#414141"/>
<path d="M9.23084 7.40009H22.7693C23.1089 7.40009 23.3846 7.12382 23.3846 6.78345V3.08343C23.3846 2.74306 23.1089 2.46679 22.7693 2.46679H19.4819C18.9675 1.01142 17.5761 6.10352e-05 16.0001 6.10352e-05C14.4241 6.10352e-05 13.0327 1.01142 12.5182 2.46671H9.23084C8.89117 2.46671 8.61548 2.74299 8.61548 3.08336V6.78337C8.61548 7.12382 8.89117 7.40009 9.23084 7.40009ZM9.84627 3.70008H12.9854C13.2777 3.70008 13.53 3.49347 13.5885 3.20614C13.8205 2.06282 14.8346 1.23342 16.0002 1.23342C17.1663 1.23342 18.1805 2.06282 18.4118 3.20614C18.4703 3.49354 18.7226 3.70008 19.0149 3.70008H22.154V6.16673H9.84627V3.70008Z" fill="#414141"/>
<path d="M28.9231 2.46656H25.2308C24.8911 2.46656 24.6154 2.74283 24.6154 3.0832C24.6154 3.42357 24.8911 3.69985 25.2308 3.69985H28.9231C29.8203 3.69985 30.7692 4.65072 30.7692 5.54985V33.9166C30.7692 34.8157 29.8203 35.7666 28.9231 35.7666H3.07694C2.17968 35.7666 1.23079 34.8157 1.23079 33.9166V5.54993C1.23079 4.65079 2.17968 3.69992 3.07694 3.69992H6.76924C7.10891 3.69992 7.3846 3.42365 7.3846 3.08327C7.3846 2.7429 7.10891 2.46663 6.76924 2.46663H3.07694C1.49538 2.46663 0 3.96513 0 5.55V33.9168C0 35.5015 1.49538 37 3.07694 37H28.9231C30.5046 37 32 35.5015 32 33.9167V5.54993C32 3.96506 30.5046 2.46656 28.9231 2.46656Z" fill="#414141"/>
<path d="M16.6154 33.3006C17.6333 33.3006 18.4616 32.4706 18.4616 31.4506C18.4616 30.4307 17.6333 29.6006 16.6154 29.6006C15.5976 29.6006 14.7693 30.4307 14.7693 31.4506C14.7693 32.4706 15.5976 33.3006 16.6154 33.3006ZM16.6154 30.834C16.9545 30.834 17.2308 31.1108 17.2308 31.4506C17.2308 31.7904 16.9545 32.0673 16.6154 32.0673C16.2764 32.0673 16.0001 31.7904 16.0001 31.4506C16.0001 31.1108 16.2764 30.834 16.6154 30.834Z" fill="#414141"/>
<path d="M16.6154 19.7332C16.955 19.7332 17.2307 19.4569 17.2307 19.1166C17.2307 18.7762 16.955 18.4999 16.6154 18.4999H10.4616C10.1219 18.4999 9.84619 18.7762 9.84619 19.1166C9.84619 19.4569 10.1219 19.7332 10.4616 19.7332H16.6154Z" fill="#414141"/>
<path d="M16.0001 2.46656C15.3213 2.46656 14.7693 3.01968 14.7693 3.69992C14.7693 4.38009 15.3213 4.93328 16.0001 4.93328C16.6788 4.93328 17.2309 4.38016 17.2309 3.69992C17.2309 3.01975 16.6788 2.46656 16.0001 2.46656Z" fill="#414141"/>
</svg>
