<svg width="32" height="37" viewBox="0 0 32 37" fill="none" xmlns="http://www.w3.org/2000/svg">
<path d="M14.995 0.0455875C13.5295 0.29884 12.2614 0.909622 11.2438 1.84814C10.1352 2.88349 9.42138 4.17955 9.14802 5.67671C8.98855 6.52585 9.06449 7.98577 9.29989 8.59655C9.35304 8.73062 9.31507 8.8647 9.12523 9.20733C8.90502 9.60956 8.88984 9.69149 8.88984 10.347C8.88984 10.995 8.90502 11.0918 9.12523 11.5089C9.42138 12.0676 9.67956 12.373 10.0213 12.5815C10.2263 12.7082 10.287 12.7901 10.287 12.9614C10.287 13.2445 10.606 14.1457 10.8641 14.5852C11.1603 15.0768 12.2158 16.0749 12.8005 16.4027L13.2941 16.6783L13.2181 17.1997C13.1726 17.4827 13.1042 17.7434 13.0587 17.7881C13.0207 17.8253 12.7929 17.8924 12.5651 17.9371C10.9249 18.235 9.45935 18.6745 8.12289 19.2704C6.85478 19.829 6.15618 20.2089 6.04227 20.4174C5.8904 20.6707 5.98912 20.9835 6.2397 21.0804C6.42195 21.1474 6.5966 21.0804 7.65969 20.559C9.44416 19.6875 11.2894 19.0916 13.089 18.8085C13.4839 18.7415 13.8408 18.6596 13.8788 18.6223C13.9395 18.5627 14.061 18.0711 14.1901 17.3412L14.2357 17.0656L14.7141 17.222C15.5493 17.4901 16.825 17.4306 17.7515 17.0805C17.8274 17.0581 17.8729 17.2145 17.9489 17.7583C18.0704 18.6074 18.1691 18.7192 18.8677 18.7936C19.4752 18.8607 21.2748 19.3076 22.1177 19.5906C22.7859 19.8215 24.1604 20.3802 24.297 20.4845C24.3426 20.5143 24.6539 20.6781 25.0032 20.842C25.5728 21.1325 25.6411 21.1474 25.8385 21.058C25.998 20.9835 26.0511 20.9016 26.0663 20.6856C26.0967 20.3578 25.9221 20.2089 24.9425 19.7322C23.3251 18.9352 21.8443 18.4212 20.1206 18.0562L18.9816 17.8179L18.8905 17.4157C18.7538 16.7676 18.769 16.641 18.9892 16.5367C19.627 16.2537 20.7737 15.2407 21.1761 14.6001C21.3963 14.2575 21.7153 13.4456 21.7836 13.0806C21.8216 12.872 21.9507 12.6858 22.3 12.3432C22.9606 11.6952 23.158 11.2482 23.158 10.347C23.158 9.72128 23.1352 9.58721 22.9454 9.22223C22.7404 8.80511 22.7404 8.79766 22.8543 8.32095C23.3251 6.30984 22.7935 4.1572 21.3887 2.44403C20.5155 1.37888 19.1107 0.529745 17.6527 0.179663C17.0225 0.0306911 16.6808 -0.00655174 16.0201 0.000896454C15.5645 0.00834465 15.1013 0.0306911 14.995 0.0455875ZM17.9109 1.25226C18.7918 1.5502 19.4676 1.95987 20.1434 2.58555C21.4191 3.77732 21.981 5.08827 21.981 6.85358C21.981 7.63568 21.8595 8.47737 21.738 8.604C21.6849 8.64869 20.8268 8.36564 20.3105 8.13474C19.5055 7.76976 18.9512 7.38243 18.1843 6.64502C17.3946 5.87782 17.2275 5.81823 16.9465 6.19066C16.8023 6.38432 16.8023 6.39922 16.9238 6.89083C16.9921 7.15897 17.1364 7.58354 17.2351 7.82935C17.3946 8.21667 17.4022 8.26136 17.2882 8.23157C17.2199 8.20922 17.0149 8.15708 16.8402 8.11239C16.3618 7.99322 15.4354 7.5612 14.9039 7.20367C14.6381 7.03235 14.1369 6.60778 13.7876 6.27259C13.3776 5.87782 13.0814 5.65436 12.9827 5.65436C12.7777 5.65436 12.2841 6.00445 11.7906 6.48115C11.3805 6.88338 10.6591 7.93363 10.5073 8.35075C10.4541 8.50717 10.3858 8.63379 10.3554 8.63379C10.3022 8.63379 10.082 7.69527 10.0213 7.18132C9.91496 6.28749 10.3174 4.76798 10.9097 3.79222C11.5703 2.70473 12.8233 1.69917 14.0306 1.29695C14.9267 0.999006 15.1393 0.969212 16.21 0.991556C17.1212 1.0139 17.311 1.0437 17.9109 1.25226ZM13.9091 7.68782C14.8355 8.44013 16.4757 9.1254 17.6603 9.25202C18.4728 9.34141 18.6019 9.31161 18.731 9.04346C18.7994 8.88704 18.7918 8.80511 18.6703 8.5742C18.4576 8.15708 18.4501 8.13474 18.6475 8.30606C19.1259 8.73062 20.7737 9.41589 21.8519 9.63935C21.9886 9.6617 22.0873 9.75108 22.1405 9.88515C22.2468 10.1459 22.1861 10.8535 22.0266 11.1514C21.8747 11.4345 21.4039 11.8814 21.123 11.9931C20.9028 12.0825 20.8724 12.157 20.8116 12.7975C20.6749 14.1457 19.2322 15.5759 17.387 16.1941C16.2024 16.5963 15.276 16.5144 13.9927 15.8962C12.9903 15.4194 12.9675 15.3971 12.3525 14.8087C11.6691 14.1383 11.3653 13.5722 11.2438 12.7231C11.1603 12.1346 11.1451 12.1123 10.8793 11.9782C10.4465 11.7622 10.0061 11.2184 9.91496 10.7864C9.8694 10.5779 9.83143 10.3395 9.83143 10.2501C9.83902 10.0863 9.83902 10.0863 9.95293 10.2352C10.2187 10.5928 10.2946 10.6449 10.5452 10.6449C10.6819 10.6449 10.8414 10.6002 10.8869 10.5406C10.9401 10.481 11.0312 10.1533 11.092 9.81067C11.2514 8.93174 11.7298 7.99322 12.3753 7.30795L12.884 6.77165L13.2333 7.09939C13.4307 7.27815 13.7345 7.5463 13.9091 7.68782Z" fill="#414141"/>
<path d="M3.66541 22.3394C3.40723 22.4139 2.91365 22.7044 2.78456 22.8608C2.73141 22.9204 2.6175 23.1066 2.51879 23.2705L2.35173 23.5684L2.31376 29.788L2.2758 36.0075L1.21271 36.0448C0.149616 36.082 0.149616 36.082 0.0509008 36.2831C-0.0857822 36.5736 0.0584943 36.8418 0.415389 36.9386C0.605226 36.9908 6.02699 37.0057 16.2099 36.9982L31.7158 36.9759L31.8601 36.7971C32.0347 36.5885 32.0499 36.3204 31.8829 36.164C31.7917 36.0671 31.5715 36.0448 30.7514 36.0448H29.7263L29.7111 29.8774L29.6883 23.7174L29.4909 23.3003C29.2631 22.831 28.8455 22.4884 28.3215 22.3469C27.957 22.25 3.99193 22.2426 3.66541 22.3394ZM28.2 23.3301C28.2987 23.3748 28.4582 23.5163 28.5417 23.628C28.7012 23.8366 28.7012 23.8664 28.7012 29.9221V36.0075L16.0048 36.0299L3.30092 36.0522V29.9742C3.30092 23.3003 3.27814 23.6429 3.74894 23.3599C3.93118 23.2481 4.98668 23.2407 15.9821 23.2332C25.3828 23.2332 28.0557 23.2556 28.2 23.3301Z" fill="#414141"/>
<path d="M15.5645 27.8586C15.1089 27.9629 14.6837 28.2906 14.4027 28.745C14.1673 29.1249 14.1521 29.1919 14.1749 29.6835C14.2053 30.3762 14.4786 30.838 15.0709 31.1807C15.4202 31.3892 15.5569 31.4265 15.9594 31.4265C16.7263 31.4265 17.2351 31.136 17.6299 30.4731C17.9033 30.0187 17.9185 29.3036 17.6755 28.8493C17.4477 28.4247 16.9389 28.0225 16.4833 27.8884C16.0657 27.7618 15.9973 27.7618 15.5645 27.8586ZM16.6124 29.028C17.0528 29.4601 16.9086 30.19 16.3239 30.4209C15.9821 30.5624 15.648 30.4954 15.3671 30.2198C14.9646 29.8176 15.1089 29.0802 15.6404 28.8493C15.9594 28.7003 16.3542 28.7748 16.6124 29.028Z" fill="#414141"/>
</svg>
