<svg width="42" height="30" viewBox="0 0 42 30" fill="none" xmlns="http://www.w3.org/2000/svg">
<path d="M24.791 14.5145H23.6513V11.9973C23.6513 9.35587 21.4513 7.20703 18.7472 7.20703C16.0432 7.20703 13.8432 9.35596 13.8432 11.9973V14.5145H12.7037C12.3024 14.5145 11.9771 14.8323 11.9771 15.2242V25.6888C11.9771 26.0808 12.3024 26.3986 12.7037 26.3986H24.791C25.1923 26.3986 25.5176 26.0808 25.5176 25.6888V15.2242C25.5176 14.8323 25.1923 14.5145 24.791 14.5145ZM15.2965 11.9974C15.2965 10.1388 16.8445 8.62669 18.7472 8.62669C20.65 8.62669 22.198 10.1388 22.198 11.9974V14.5146H15.2965V11.9974ZM24.0643 24.9791H13.4303V15.9341H24.0643V24.9791Z" fill="#414141"/>
<path d="M18.0207 21.378V23.1023C18.0207 23.4943 18.346 23.8121 18.7473 23.8121C19.1486 23.8121 19.474 23.4943 19.474 23.1023V21.378C20.3521 21.0826 20.985 20.268 20.985 19.3112C20.985 18.106 19.9812 17.1255 18.7473 17.1255C17.5135 17.1255 16.5098 18.106 16.5098 19.3112C16.5098 20.268 17.1426 21.0827 18.0207 21.378ZM18.7473 18.5451C19.1798 18.5451 19.5317 18.8889 19.5317 19.3113C19.5317 19.7338 19.1798 20.0775 18.7473 20.0775C18.3148 20.0775 17.9631 19.7338 17.9631 19.3113C17.9631 18.8889 18.3148 18.5451 18.7473 18.5451Z" fill="#414141"/>
<path d="M41.5711 8.50176C41.1906 8.03047 40.6199 7.76018 40.0055 7.76018H37.4948V5.2079C37.4948 4.21478 36.6676 3.40686 35.651 3.40686H18.1041C17.9834 3.40686 17.8752 3.33238 17.8345 3.22146L17.0804 1.15997C16.8266 0.46609 16.1493 0 15.395 0H6.59811C5.84386 0 5.16653 0.466185 4.91269 1.15997L4.15843 3.22156C4.11784 3.33247 4.00952 3.40695 3.88899 3.40695H1.84383C0.827211 3.40676 0 4.21478 0 5.2079V28.199C0 29.1921 0.827211 30 1.84383 30H35.651C36.631 30 37.4325 29.2488 37.4893 28.3052L41.9443 10.162C42.0876 9.57817 41.9515 8.97306 41.5711 8.50176ZM36.0415 28.1989C36.0415 28.4092 35.8662 28.5803 35.651 28.5803H1.84383C1.62846 28.5803 1.45329 28.4091 1.45329 28.1989V5.2079C1.45329 4.99752 1.62855 4.82642 1.84383 4.82642H3.88899C4.62203 4.82642 5.28027 4.37339 5.52694 3.6991L6.2812 1.63751C6.32896 1.5071 6.45627 1.41947 6.59811 1.41947H15.395C15.5368 1.41947 15.6641 1.5071 15.7119 1.63761L16.466 3.69919C16.7128 4.37348 17.371 4.82642 18.1041 4.82642H35.651C35.8663 4.82642 36.0415 4.99762 36.0415 5.2079V28.1989ZM40.5311 9.83085L37.4948 22.1964V9.17965H40.0055C40.2336 9.17965 40.3693 9.30561 40.4299 9.38075C40.4905 9.4558 40.5843 9.61413 40.5311 9.83085Z" fill="#414141"/>
</svg>
